<svg id="Layer_1" data-name="Layer 1" xmlns="http://www.w3.org/2000/svg" viewBox="0 0 317.96 342"><defs><style>.cls-1{fill:#fcb813;}.cls-2{fill:#fff;}</style></defs><title>logo_desktop</title><path id="_Path_" data-name="&lt;Path&gt;" class="cls-1" d="M183.8,42.44c-9.69-10.19-22-16-33.68-16-7.35,0-15.88,3.06-22.24,8-1.92,1.49-3.76,2.93-5.41,4.22-2.5,2-4.88,3.86-6,4.62-.27-.7-.66-1.93-1-3-.65-2-1.46-4.51-2.44-6.92C106.55,17.41,94.59,9,78.42,9c-15.53,0-27.6,6-38,18.81C31.73,38.43,27,53.39,26.42,72.26c-1,31.33,6,59.93,20.27,82.74.89,1.42,8.37,12.19,11.86,17.19,2,2.94,3.85,3.77,5.54,2.84,2.71-1.47,1.85-4,1.11-6.29-1.09-3.29-2.83-8.15-4.66-13.31-2.43-6.8-4.93-13.85-6.19-17.92-13.21-42.59-12.57-74,2-96.15a25.56,25.56,0,0,1,21.5-12A28.52,28.52,0,0,1,91.49,33c6.82,3.74,11.51,10.28,14.83,15.55.46.73,1.16,2.15,1.91,3.65,2.11,4.22,2.84,5.5,3.6,5.83a1.45,1.45,0,0,0,.59.12c1.27,0,4.05-1.45,8.74-4.11.83-.48,1.52-.87,2-1.09,7-3.5,12.49-6.26,23.23-6.26h.48c11.1.08,31.83,12,31.83,40.36,0,13.05-6.15,26.26-18.3,39.29-10.3,11-20,21.46-31.83,31.31-9.29,7.75-16.82,13.93-29.09,22.67-10.8,7.71-15.91,12.19-13.86,15.3A3.07,3.07,0,0,0,88.37,197c3,0,7.92-2.55,14.11-5.78l.74-.39c21-10.31,39.83-23.25,59.39-40.73,17.43-15.58,29.35-31.3,34.47-45.48,2.61-7.22,2.89-13.26,3.18-19.11l.05-1.17c.72-14.6-5.45-30.25-16.51-41.87" transform="translate(-26.32 -9)"/><path id="_Compound_Path_" data-name="&lt;Compound Path&gt;" class="cls-2" d="M333.81,183.45c-.24-1.4-.69-4.93-1.41-8s-2.09-10-3.26-10.64-3.33.2-4.73,0-2.1-.4-2.58-1.82-.71-1.19-2.36-.45-1.31,1.22-4.16,1.22-4.27-.15-5.24-1.09a3,3,0,0,0-.49-.47,9.9,9.9,0,0,1-1.69-1.1c-2.31-1.65-2.09-4.68-2.31-7.53s-.44-8.22-2.55-12.08c-2.94-5.39-1.8-10.43-1.34-13.31,1.76.95,2.87,2.12,3.75,1.24,1.13-1.12,2.71,3.89,6.49,5.78,1.87.93,2.13,4.72,3.05,7s-1.23,2.86-1.17,3.78c.23,4.23,1.54.72,2.34,1.88,4.72,6.83,6.85-.7,3.08-8-2.23-4.25.48-3.32-5.67-13.22-2.14-3.48-6-6.5-5.51-7.79.64-1.84-5.71-7.16-11.18-10.84a2.37,2.37,0,0,0-1.6-.52c-1.9-.64-4.18-1.28-3.59-3.2.24-.78,2.16-.56,2.85-3.31.86-3.46,1.17-3.79,1.87-4.22,3.83-2.39,1.38-9.27-1-11.29-2.17-1.9-2.11-2.59-4.46-4.25a19.8,19.8,0,0,0-2-1.4,9.93,9.93,0,0,0-2-.49c-2-.42-6.74.61-7.94,1.74-1.81,1.69-2.94,1.37-5.24,3.68s-2.88,4-2.36,5,1.12-.51,2.08,2.1.76,1.69.76,3.78-.23,4.68,1.42,5.88,6.52,3.18,4.19,5.9c-1.8,2.11-4.55,2.47-5.85,6.09-.4,1.07-4,5.41-2.6,6.59s-.25,14.48-.47,12.29c-.46-5-4.93-8.52-7.76-13.23-1-1.61-4.47-4-5.65-4.94s-1.18-1.9-1.89-2.82-.7-.46-4.23-1.89c-1.41-.56-5.16-1.4-6.34-2.34s-6-1.63-7.56-2.35,2.61-3.07.74-5.92-.5-3.51-2.61-5.61a13.24,13.24,0,0,1-3.28-5.18c-.72-1.66-1.41-2.14-3.79-3.55s-2.8-2.14-5.4-1.88a21,21,0,0,0-5.89,1.42c-2.13.7-4,1.21-5,3.06s-1.64,1.15-1.89,4,1.17,1.18,1.41,2.83a11.49,11.49,0,0,1,.25,3.28,12.19,12.19,0,0,0,1.41,5.46c.7,1.6,1,.89,2.37,2.07s2.57-.22,2.8,1.42-2.53,1.69-4.32,3.06a18.56,18.56,0,0,0-2.74,3.29c-1.51,2.23-4,3.39-3.28,5.41.23.71-1,1.07-2.12,2.12a51.74,51.74,0,0,1-3.71,3.69c-1.22,1-.7,1.17-4.06,2.4-3,1.1-6.35,4-7.54,5.14s-2.71,3.72-7.66,3.22c-2.88-.3-5.52-1.71-6.24-3.14s-2.13-2.17-4-4-2.31-2.62-3.24-3.32-1.3-1.82-5.06-4.17c-.16-.1-3.63-2.39-2.8-3.78s-3.89-4.14-7.67-6-9-6.51-12.3-6.94a20.66,20.66,0,0,1-4.69-1.43s1.47-2.45,2.36-2.85c1.41-.6,1.87-3.62,2.13-6.33.15-1.66.72-2.8-.7-6.11a13.35,13.35,0,0,0-6-6.74c-2.23-1.41-5.5-1.66-9.36.38-2.33,1.23-5.38,4.58-6.09,7.67s2.37,1.74,1.66,7.16c-.33,2.67,1.71,6,2.5,6.13,2.43.48,5,1.64,1.29,3.51-1.25.61-3.31,5-4.27,9.43s-3.07,7.55-1.43,9.1c1,.93.17,2-.77,5.21-2,6.65-2.72,8.28-3.42,10.64s-2.19,4.89-1.89,8.76c.17,1.9-2.1,3-1.45,6.6.83,4.75,3.72,4.89,3.49,3.34-.62-4-.59-7.26.16-6.6,4.72,4.19.62-2.66.62-2.66s1.17,0,1.88-2.61,3-1.95,4.55-8.72c.6-2.58,1.71-2.08,3.11-5.49.7-1.71.81-4.84,2.08-4.07s1.33-9.78,2.4-6.38c.79,2.48,1,7.95,2.92,10.09a16.78,16.78,0,0,1,3.54,6.69c-1,6.46,1.3,4.75,1.77,9.2s.74,3,.28,7.25-1.84,8.62-2.08,14.26-1.38,5.29.71,11.52a23.59,23.59,0,0,0,4.27,7.77l.09.12c-.41-.09-1.25.06-2.63,1.34-.59.56-.55.67-4.31,2.54-1.6.79-1.64,4.94-.21,4.94a22.71,22.71,0,0,0,4.21,0l1.28-.16c.39-.08.78-.21,2.71-.79,5.7-1.63,12-1.4,13.89-2.58s.52-2.82-1-5.82c-.45-.93,1.39-1.38.24-3.18-.44-.65-4.21-4-5.06-5.5-1.15-2-2.26-5.54-.77-11.15.42-1.62,6.12,9.87,14,5.32,3.06-1.77,7.4-.5,9.54-.73s2.59-2.7,4.92,1.77.92,4,2.82,6.11,3.54,1.43,3.54,1.43a18.32,18.32,0,0,0,1.17-6.37c0-3.54-.71-12.6-2.35-14.82-1.38-1.85-6.86.91-7.55-.49-1.15-2.3-4.83.32-6.31.23-7.31-.46-5.16.2-8,.2s-2.94-2.12-3.17-4.71.13-4.31.78-7.83c.38-2.15,1-2.78-1-7.65-1.44-3.58-1.62-3.34-2.1-6.61s-.73-4.5-1.42-7.53-3-5.54,0-3.75c1,.59,1.9,2.22,2.54,1.56,1.38-1.39,5.29,6.14,13.22,8.6,3.3,1,1.88.54,4.48,3.12s2.79,3,4.89,3.9,1.54-.79,3.47.3c2.09,1.13.94,1,3.5.55s2.24-.57,3.89-2.24,1.19-2.47,6.85-4.17,6.89-2.86,8.79-4.75,5.3-3.85,6.26-1.93c.48.93,6.18-6,7.4-5,4,3.21,2.19,6.28,3.61,9.32s1.07,3.21,2.53,5.57a24.41,24.41,0,0,1,2.43,4.35c.86,2.13-1.86,7.41-2.1,10s-1.48,12.47-2.19,16.92.49,12.73.73,15.08,2,1.27-3.2,2.69-5.26,4.58-5,6.23,2.36.53,4.72.53,7.74.38,9.81-.08,6.63.73,7.08-.93c.18-.63-1.06-4.59.47-5s-1.12-4.78-1.82-6.87c-1.6-4.75-.95-9.67-.95-13s1.72-4.44,2.62-5.41,1.15-1.38,2.63-.05c3.67,3.3,4,5.18,5.92,7.3s.47,2.49,3.92,5.48c1.93,1.68,6.09,3.59,8.43,4.78s1.68,2.75,2.85,3.46,3.08-.24,2.37,1.41-4.7,2.33-5.16,4.47-1,1.88-.71,2.83,2.29,1.06,5.6,1.06,23.61-.11,24.77-.11.46-.46.7-2.11,0-2.54,1.41-1.88c2.12.93,0-3,.22-6.35.26-3.53.48-6.64,1.19-8s1.19-10.12,2.36-10.58,6.34,12.53,9.85,12.68c5.93.23,1.42-.21,3.56-.21a13.6,13.6,0,0,1,5.44,1c1.85.71,4.93.28,6.1,1.19s3.76,1.15,5.17,2.56,2.14,1,2.6,2.14.76,2.61,1.66,2.14a3.81,3.81,0,0,1,1.62-.48s.71-1.19,1.42-.25S334.07,184.89,333.81,183.45Zm-51.78-16c-2.12,2.36-1.44,4.9-1.44,8.24,0,2.44-2.34,7.06-2.57,8.24s-.71-4.72-2.12-5a4.44,4.44,0,0,1-1-.22c-.44-.21-.72-.72-1.77-2.37-1.65-2.6-7.6-4.9-9.26-8s-5.79-3.57-7.69-6.64c-1-1.57-1.42-5.88-1.65-10.12-.25-4.46-.31-8.4-3.08-11.79a29.78,29.78,0,0,1-4.7-9.85c-.23-1.66-2.57-3.21-2.34-6.84,1.39-2.36,4.93.95,6.57,1.64s.7-.93,2.83-.46,3,1.74,4.72,2.59c3.21,1.6,3.61,3,4.22,4,5.45,8.7,6.31,12.25,6,14.26-1.21,2.12-3,4.11-1.09,5.29,0,2.87,1.57,4.83,3.3,4.94,3.54.24,5.19-3.31,4.24-8,.85-7.17,4.12-8.86,5.13-13.87.16-2.53.41-3.81.27-1.9a12.3,12.3,0,0,1-.27,1.9,46.7,46.7,0,0,0,.27,8.94c.48,3.26,2.48,7.22,2.39,8.69-.23,3.54.45,5-.23,6.36S284.15,165.1,282,167.44Z" transform="translate(-26.32 -9)"/><path id="_Compound_Path_2" data-name="&lt;Compound Path&gt;" class="cls-2" d="M26.32,279.79v-7.11h3V252.23h-3v-7.11H42.65l5.86,14.4h.1l5.86-14.4H70.78v7.11h-3v20.45h3v7.11H54.55v-7.11h3.55V256H58l-7,16.66H46.1L39.1,256H39v16.66h3.55v7.11Z" transform="translate(-26.32 -9)"/><path id="_Compound_Path_3" data-name="&lt;Compound Path&gt;" class="cls-2" d="M94.13,279.79H76.37v-7.11h3.7V252.23h-3.7v-7.11H94.13v7.11h-3.7v20.45h3.7Z" transform="translate(-26.32 -9)"/><path id="_Compound_Path_4" data-name="&lt;Compound Path&gt;" class="cls-2" d="M121.4,254.87a9,9,0,0,0-3.22-2.78,10,10,0,0,0-4.71-1c-1.92,0-4.22.62-4.22,2.5,0,3,5.47,2.93,10.95,4s10.95,3.41,10.95,11.28c0,7.68-5.66,11.67-13.11,11.67-3.31,0-6.87-.82-9.22-3.55v2.78h-8.59v-10.9h8.83a7.26,7.26,0,0,0,2.93,3.17,8.59,8.59,0,0,0,4.22,1c2.26,0,4.9-.48,4.9-2.83,0-3.07-5.52-3.07-11-4.18s-11-3.27-11-10.71c0-5.62,4.75-11,13.3-11a12,12,0,0,1,9.12,3.41v-2.64h8.64v9.75Z" transform="translate(-26.32 -9)"/><path id="_Compound_Path_5" data-name="&lt;Compound Path&gt;" class="cls-2" d="M158.08,254.87a9,9,0,0,0-3.22-2.78,10,10,0,0,0-4.71-1c-1.92,0-4.22.62-4.22,2.5,0,3,5.47,2.93,10.95,4s10.95,3.41,10.95,11.28c0,7.68-5.66,11.67-13.11,11.67-3.31,0-6.87-.82-9.22-3.55v2.78H136.9v-10.9h8.83a7.26,7.26,0,0,0,2.93,3.17,8.59,8.59,0,0,0,4.22,1c2.26,0,4.9-.48,4.9-2.83,0-3.07-5.52-3.07-11-4.18s-11-3.27-11-10.71c0-5.62,4.75-11,13.3-11a12,12,0,0,1,9.12,3.41v-2.64h8.64v9.75Z" transform="translate(-26.32 -9)"/><path id="_Compound_Path_6" data-name="&lt;Compound Path&gt;" class="cls-2" d="M191,279.79H173.24v-7.11h3.7V252.23h-3.7v-7.11H191v7.11h-3.7v20.45H191Z" transform="translate(-26.32 -9)"/><path id="_Compound_Path_7" data-name="&lt;Compound Path&gt;" class="cls-2" d="M197,245.13h13.49l11.86,18.34V252.23h-4v-7.11h17.19v7.11H232v27.56h-9.6l-12.29-19.3v12.19h4v7.11H197v-7.11h3.46V252.23H197Z" transform="translate(-26.32 -9)"/><path id="_Compound_Path_8" data-name="&lt;Compound Path&gt;" class="cls-2" d="M274.54,279.79h-8.79v-3.7a13.33,13.33,0,0,1-9.84,4.46c-10.61,0-17.24-7.3-17.24-17.76,0-9.79,5.23-18.44,16-18.44a13.13,13.13,0,0,1,9,3.12v-2.35H273v12.15h-9.22a6.29,6.29,0,0,0-2.69-2.88,7.87,7.87,0,0,0-3.89-.87c-5.28,0-7.87,4.18-7.87,9s2.74,8.69,7.83,8.69c2.93,0,6-1.2,6.39-4h-4.42v-6.58h18.63v6.91h-3.22Z" transform="translate(-26.32 -9)"/><path id="_Compound_Path_9" data-name="&lt;Compound Path&gt;" class="cls-2" d="M318.18,277.58a20.75,20.75,0,0,1-11,3c-8.59,0-13.11-4.08-13.11-10.47,0-4.8,2.83-7.59,7-9.41-2-1.63-3.84-4.51-3.84-7.11,0-6,5.42-8.45,10.75-8.45,5.09,0,10.18,2.26,10.18,8a8.57,8.57,0,0,1-4.27,7.44l6.53,6.72a8.83,8.83,0,0,0,3.17-4.13h-3.07v-6.82h13.39v6.82H330.8a21.62,21.62,0,0,1-5.86,8.83l1.25,1.25h6.1v6.53H320.58Zm-12-11.81a4.93,4.93,0,0,0-2.83,4.46c0,2.31,2.3,4.08,4.46,4.08a5.67,5.67,0,0,0,4.71-2.26Zm1.63-9c1.73,0,3.12-2.45,3.12-4a2.78,2.78,0,0,0-3.07-2.88c-2,0-3.41,1-3.41,3C304.44,254.49,306.08,256.75,307.81,256.75Z" transform="translate(-26.32 -9)"/><path id="_Compound_Path_10" data-name="&lt;Compound Path&gt;" class="cls-2" d="M26.32,318.87v-7.11h3.31V291.31H26.32v-7.11H59v13.2H52l-1.54-6.1H40v6.34h6.67v7.78H40v6.34H50.47L52,305.14h7v13.73Z" transform="translate(-26.32 -9)"/><path id="_Compound_Path_11" data-name="&lt;Compound Path&gt;" class="cls-2" d="M75.36,291.31l4.22,5.76,4.32-5.76H81.69v-7.11H97.3v7.11H94.75l-7.15,9.36,7.73,11.09h2.54v7.11H82v-7.11h2.55L80,304.71l-5.19,7.06h2.55v7.11H61.24v-7.11h2.35L71.9,301.4l-7.59-10.08H61.77v-7.11h15.8v7.11Z" transform="translate(-26.32 -9)"/><path id="_Compound_Path_12" data-name="&lt;Compound Path&gt;" class="cls-2" d="M99.26,318.87v-7.11h3.55V291.31H99.26v-7.11h20.55c9.65,0,13.68,3.65,13.68,11s-4,11-13.68,11h-6.63v5.47h4.08v7.11Zm13.92-19.69h4.66c3.26,0,5-1.58,5-3.79,0-2.69-1.44-4.08-5-4.08h-4.66Z" transform="translate(-26.32 -9)"/><path id="_Compound_Path_13" data-name="&lt;Compound Path&gt;" class="cls-2" d="M134.45,318.87v-7.11H138V291.31h-3.55v-7.11h17.48v7.11h-3.55v20.45h9.08L159,305h6.67v13.83Z" transform="translate(-26.32 -9)"/><path id="_Compound_Path_14" data-name="&lt;Compound Path&gt;" class="cls-2" d="M167.1,301.54a18.27,18.27,0,1,1,18.25,18.1A18.12,18.12,0,0,1,167.1,301.54Zm10.66,0c0,4.27,3,8.11,7.59,8.11s7.63-3.84,7.63-8.11-3-8.11-7.63-8.11S177.76,297.27,177.76,301.54Z" transform="translate(-26.32 -9)"/><path id="_Compound_Path_15" data-name="&lt;Compound Path&gt;" class="cls-2" d="M222.83,318.87H205.07v-7.11h3.7V291.31h-3.7v-7.11h17.76v7.11h-3.7v20.45h3.7Z" transform="translate(-26.32 -9)"/><path id="_Compound_Path_16" data-name="&lt;Compound Path&gt;" class="cls-2" d="M224.22,297.32V284.21h34v13.11h-6.43l-1.39-6h-4v20.45h4v7.11H232v-7.11h4V291.31h-4l-1.34,6Z" transform="translate(-26.32 -9)"/><path id="_Compound_Path_17" data-name="&lt;Compound Path&gt;" class="cls-2" d="M259.94,318.87v-7.11h3.31V291.31h-3.31v-7.11h32.7v13.2h-7l-1.54-6.1H273.62v6.34h6.67v7.78h-6.67v6.34h10.47l1.54-6.63h7v13.73Z" transform="translate(-26.32 -9)"/><path id="_Compound_Path_18" data-name="&lt;Compound Path&gt;" class="cls-2" d="M295.32,311.77h3.41V291.31h-3.41v-7.11h19.73c10.08,0,18.82,3.6,18.82,17.09,0,10.66-5.76,17.57-20.31,17.57H295.32Zm13.78,0h3.6c6.58,0,10.52-3.41,10.52-10.23s-3.94-10.23-10.52-10.23h-3.6Z" transform="translate(-26.32 -9)"/><path id="_Path_2" data-name="&lt;Path&gt;" class="cls-2" d="M187.11,229.74a9,9,0,0,1-7.34,4,8.94,8.94,0,0,1,0-17.88,8.89,8.89,0,0,1,7.28,3.83h2.35a10.9,10.9,0,1,0-9.58,16,11.09,11.09,0,0,0,9.66-5.86Z" transform="translate(-26.32 -9)"/><polygon id="_Path_3" data-name="&lt;Path&gt;" class="cls-2" points="166.32 226.24 177.8 226.24 177.8 224.34 168.42 224.34 168.42 216.6 177.49 216.6 177.49 214.71 168.42 214.71 168.42 207.17 177.8 207.17 177.8 205.27 166.32 205.27 166.32 226.24"/><polygon id="_Path_4" data-name="&lt;Path&gt;" class="cls-2" points="181.66 226.24 183.76 226.24 183.76 207.79 183.81 207.79 196.26 226.24 198.35 226.24 198.35 205.27 196.26 205.27 196.26 222.67 196.2 222.67 184.49 205.27 181.66 205.27 181.66 226.24"/><polygon id="_Path_5" data-name="&lt;Path&gt;" class="cls-2" points="205.5 226.24 207.6 226.24 207.6 207.17 212.39 207.17 212.39 205.27 200.69 205.27 200.69 207.17 205.5 207.17 205.5 226.24"/><polygon id="_Path_6" data-name="&lt;Path&gt;" class="cls-2" points="214.57 226.24 226.05 226.24 226.05 224.34 216.67 224.34 216.67 216.6 225.74 216.6 225.74 214.71 216.67 214.71 216.67 207.17 226.05 207.17 226.05 205.27 214.57 205.27 214.57 226.24"/><path id="_Path_7" data-name="&lt;Path&gt;" class="cls-2" d="M256.09,235.24h2.1V216.17h3.65a8,8,0,0,1,4.08.79,4.63,4.63,0,0,1-1.16,8.47,15.56,15.56,0,0,1-4.5.31l7.11,9.5H270l-5.92-7.82a6.36,6.36,0,0,0,6.23-6.38,6.49,6.49,0,0,0-3.74-6,11.87,11.87,0,0,0-5.16-.79h-5.33Z" transform="translate(-26.32 -9)"/><polygon id="_Path_8" data-name="&lt;Path&gt;" class="cls-2" points="254.81 226.24 256.91 226.24 256.91 216.66 265.11 216.66 265.11 214.76 256.91 214.76 256.91 207.17 265.42 207.17 265.42 205.27 254.81 205.27 254.81 226.24"/><path id="_Compound_Path_19" data-name="&lt;Compound Path&gt;" class="cls-2" d="M294.12,224.87a11.1,11.1,0,1,0,11.08-11A11,11,0,0,0,294.12,224.87Zm2.1,0a9,9,0,1,1,9,8.84A9,9,0,0,1,296.22,224.87Z" transform="translate(-26.32 -9)"/><path id="_Path_9" data-name="&lt;Path&gt;" class="cls-2" d="M319.65,235.24h2.1V216.17h3.66a8,8,0,0,1,4.08.79,4.63,4.63,0,0,1-1.16,8.47,15.58,15.58,0,0,1-4.51.31l7.11,9.5h2.63l-5.92-7.82a6.37,6.37,0,0,0,6.23-6.38,6.49,6.49,0,0,0-3.74-6,11.88,11.88,0,0,0-5.16-.79h-5.33Z" transform="translate(-26.32 -9)"/><polygon id="_Path_10" data-name="&lt;Path&gt;" class="cls-2" points="0 226.24 2.1 226.24 2.1 207.79 2.15 207.79 14.6 226.24 16.69 226.24 16.69 205.27 14.6 205.27 14.6 222.67 14.54 222.67 2.83 205.27 0 205.27 0 226.24"/><path id="_Compound_Path_20" data-name="&lt;Compound Path&gt;" class="cls-2" d="M45.59,235.24h2.18l3.06-7.06h9.75l3,7.06h2.3l-9-21H54.55Zm10.15-18.59,4,9.64H51.63Z" transform="translate(-26.32 -9)"/><polygon id="_Path_11" data-name="&lt;Path&gt;" class="cls-2" points="43.62 226.24 45.72 226.24 45.72 207.17 50.51 207.17 50.51 205.27 38.8 205.27 38.8 207.17 43.62 207.17 43.62 226.24"/><rect id="_Path_12" data-name="&lt;Path&gt;" class="cls-2" x="52.86" y="205.27" width="2.1" height="20.97"/><path id="_Compound_Path_21" data-name="&lt;Compound Path&gt;" class="cls-2" d="M84.65,224.87a11.1,11.1,0,1,0,11.08-11A11.05,11.05,0,0,0,84.65,224.87Zm2.1,0a9,9,0,1,1,9,8.84A9,9,0,0,1,86.74,224.87Z" transform="translate(-26.32 -9)"/><polygon id="_Path_13" data-name="&lt;Path&gt;" class="cls-2" points="83.87 226.24 85.96 226.24 85.96 207.79 86.02 207.79 98.46 226.24 100.56 226.24 100.56 205.27 98.46 205.27 98.46 222.67 98.4 222.67 86.7 205.27 83.87 205.27 83.87 226.24"/><path id="_Compound_Path_22" data-name="&lt;Compound Path&gt;" class="cls-2" d="M129.39,235.24h2.18l3.06-7.06h9.75l3,7.06h2.3l-9-21h-2.35Zm10.15-18.59,4,9.64h-8.13Z" transform="translate(-26.32 -9)"/><polygon id="_Path_14" data-name="&lt;Path&gt;" class="cls-2" points="126.03 226.24 136.79 226.24 136.79 224.34 128.12 224.34 128.12 205.27 126.03 205.27 126.03 226.24"/><path id="_Path_15" data-name="&lt;Path&gt;" class="cls-2" d="M45.13,345A9.21,9.21,0,0,1,37.58,349a9.2,9.2,0,0,1,0-18.39A9.15,9.15,0,0,1,45,334.58h2.42A11.21,11.21,0,1,0,37.61,351a11.43,11.43,0,0,0,9.94-6Z" transform="translate(-26.32 -9)"/><polygon id="_Path_16" data-name="&lt;Path&gt;" class="cls-2" points="49.12 341.62 51.28 341.62 51.28 331.5 62.45 331.5 62.45 341.62 64.6 341.62 64.6 320.05 62.45 320.05 62.45 329.55 51.28 329.55 51.28 320.05 49.12 320.05 49.12 341.62"/><rect id="_Path_17" data-name="&lt;Path&gt;" class="cls-2" x="93.41" y="320.04" width="2.16" height="21.58"/><polygon id="_Path_18" data-name="&lt;Path&gt;" class="cls-2" points="124.53 341.62 135.61 341.62 135.61 339.67 126.69 339.67 126.69 320.05 124.53 320.05 124.53 341.62"/><path id="_Compound_Path_23" data-name="&lt;Compound Path&gt;" class="cls-2" d="M188.47,350.62h6.3a13.44,13.44,0,0,0,7-1.78,10.74,10.74,0,0,0,0-18,13.44,13.44,0,0,0-7-1.78h-6.3ZM190.63,331h3.12c3.18,0,5.19.41,7.11,1.66a8.9,8.9,0,0,1,3.67,7.14,9.09,9.09,0,0,1-3.38,7.11c-2.48,1.75-5.45,1.75-7.4,1.75h-3.12Z" transform="translate(-26.32 -9)"/><path id="_Path_19" data-name="&lt;Path&gt;" class="cls-2" d="M234.43,350.62h2.16V331h3.76a8.15,8.15,0,0,1,4.2.81,4.76,4.76,0,0,1-1.19,8.72,16.3,16.3,0,0,1-4.64.32l7.32,9.77h2.71l-6.09-8a6.55,6.55,0,0,0,6.42-6.56,6.68,6.68,0,0,0-3.85-6.15,12.19,12.19,0,0,0-5.31-.82h-5.48Z" transform="translate(-26.32 -9)"/><polygon id="_Path_20" data-name="&lt;Path&gt;" class="cls-2" points="250.18 341.62 261.99 341.62 261.99 339.67 252.34 339.67 252.34 331.71 261.66 331.71 261.66 329.75 252.34 329.75 252.34 322 261.99 322 261.99 320.05 250.18 320.05 250.18 341.62"/><polygon id="_Path_21" data-name="&lt;Path&gt;" class="cls-2" points="290.38 341.62 292.54 341.62 292.54 322.64 292.6 322.64 305.39 341.62 307.55 341.62 307.55 320.05 305.39 320.05 305.39 337.95 305.34 337.95 293.3 320.05 290.38 320.05 290.38 341.62"/><path id="_Compound_Path_24" data-name="&lt;Compound Path&gt;" class="cls-2" d="M339.48,327v3.85h.66v-1.54h.79c.66.05.78.22.81.83s0,.6.12.72h.66c-.09-.16-.09-.24-.12-.89,0-.49-.12-.81-.65-1v0a.88.88,0,0,0,.71-.93c0-1.05-1.12-1.05-1.36-1.05Zm.66.63H341c.33,0,.73,0,.78.45,0,.61-.59.61-.86.61h-.79Zm.79-2.1a3.36,3.36,0,1,0,3.36,3.36A3.37,3.37,0,0,0,340.93,325.53Zm0,.67a2.7,2.7,0,1,1-2.66,2.7A2.67,2.67,0,0,1,340.91,326.2Z" transform="translate(-26.32 -9)"/></svg>