<svg xmlns="http://www.w3.org/2000/svg" viewBox="5073 53 20 20">
  <defs>
    <style>
      .cls-1 {
        fill: #fff;
      }
    </style>
  </defs>
  <g id="Group_1039" data-name="Group 1039" transform="translate(5073 53)">
    <path id="Path_246" data-name="Path 246" class="cls-1" d="M75.1,72.7l4.333-2.244L75.1,68.2Z" transform="translate(-66.756 -60.622)"/>
    <path id="Path_247" data-name="Path 247" class="cls-1" d="M16.889,0H3.111A3.12,3.12,0,0,0,0,3.111V16.889A3.12,3.12,0,0,0,3.111,20H16.889A3.12,3.12,0,0,0,20,16.889V3.111A3.12,3.12,0,0,0,16.889,0Zm1.133,10.611a25.08,25.08,0,0,1-.156,2.6,3.484,3.484,0,0,1-.633,1.589,2.244,2.244,0,0,1-1.611.678c-2.244.167-5.611.167-5.611.167s-4.167-.033-5.456-.167a2.7,2.7,0,0,1-1.767-.689A3.484,3.484,0,0,1,2.156,13.2,25.08,25.08,0,0,1,2,10.6V9.378a25.08,25.08,0,0,1,.156-2.6,3.484,3.484,0,0,1,.633-1.589A2.244,2.244,0,0,1,4.4,4.511c2.233-.156,5.6-.156,5.6-.156h0s3.367,0,5.611.167a2.31,2.31,0,0,1,1.611.678,3.484,3.484,0,0,1,.633,1.589,25.08,25.08,0,0,1,.156,2.6v1.222Z"/>
  </g>
</svg>
