<svg xmlns="http://www.w3.org/2000/svg" viewBox="5037 53 20 20">
  <defs>
    <style>
      .cls-1 {
        fill: #fff;
      }
    </style>
  </defs>
  <g id="Group_1038" data-name="Group 1038" transform="translate(5037 53)">
    <g id="Group_1037" data-name="Group 1037">
      <g id="Group_1036" data-name="Group 1036">
        <path id="Path_245" data-name="Path 245" class="cls-1" d="M17.222,0H2.778A2.779,2.779,0,0,0,0,2.778V17.222A2.779,2.779,0,0,0,2.778,20H17.222A2.779,2.779,0,0,0,20,17.222V2.778A2.779,2.779,0,0,0,17.222,0ZM10,6.111A3.889,3.889,0,1,1,6.111,10,3.893,3.893,0,0,1,10,6.111Zm7.778,11.111a.55.55,0,0,1-.556.556H2.778a.55.55,0,0,1-.556-.556V8.333h1.9A6.354,6.354,0,0,0,3.889,10a6.111,6.111,0,0,0,12.222,0,5.922,5.922,0,0,0-.233-1.667h1.9Zm0-11.667a.55.55,0,0,1-.556.556H14.444a.55.55,0,0,1-.556-.556V2.778a.55.55,0,0,1,.556-.556h2.778a.55.55,0,0,1,.556.556Z"/>
      </g>
    </g>
  </g>
</svg>
