<svg xmlns="http://www.w3.org/2000/svg" viewBox="4965 53 20 20">
  <defs>
    <style>
      .cls-1 {
        fill: #fff;
      }
    </style>
  </defs>
  <path id="Path_243" data-name="Path 243" class="cls-1" d="M16.889,0H3.111A3.12,3.12,0,0,0,0,3.111V16.889A3.12,3.12,0,0,0,3.111,20h8.356V12.256h-2.6V9.233h2.611V7.011a3.638,3.638,0,0,1,3.878-3.989,19.4,19.4,0,0,1,2.333.122v2.7h-1.6c-1.256,0-1.5.6-1.5,1.467V9.233h2.989l-.389,3.022h-2.6V20h2.3A3.12,3.12,0,0,0,20,16.889V3.111A3.12,3.12,0,0,0,16.889,0Z" transform="translate(4965 53)"/>
</svg>
