<svg xmlns="http://www.w3.org/2000/svg" viewBox="5001 53 20 20">
  <defs>
    <style>
      .cls-1 {
        fill: #fff;
      }
    </style>
  </defs>
  <path id="Path_244" data-name="Path 244" class="cls-1" d="M18.91,1.1A3.627,3.627,0,0,0,16.253,0H3.758A3.627,3.627,0,0,0,1.1,1.1,3.623,3.623,0,0,0,0,3.756v12.5A3.6,3.6,0,0,0,1.1,18.9,3.62,3.62,0,0,0,3.746,20H16.253A3.757,3.757,0,0,0,20,16.256V3.756A3.571,3.571,0,0,0,18.91,1.1ZM16.8,6.511a4.227,4.227,0,0,1,.022.456,10.062,10.062,0,0,1-1.668,5.511,10.7,10.7,0,0,1-2.012,2.289,9.032,9.032,0,0,1-2.8,1.589,10.077,10.077,0,0,1-3.5.589,9.828,9.828,0,0,1-5.37-1.567,6.7,6.7,0,0,0,.834.056,6.937,6.937,0,0,0,4.358-1.5,3.309,3.309,0,0,1-2.023-.7A3.529,3.529,0,0,1,3.391,11.5a4.761,4.761,0,0,0,.656.067,3.292,3.292,0,0,0,.856-.133,3.492,3.492,0,0,1-2.057-1.211A3.331,3.331,0,0,1,2.012,8V7.967A4.133,4.133,0,0,0,3.68,8.4,3.314,3.314,0,0,1,2.157,5.478a3.471,3.471,0,0,1,.489-1.767A9.942,9.942,0,0,0,5.848,6.3,9.925,9.925,0,0,0,9.883,7.389a2.971,2.971,0,0,1-.1-.822,3.406,3.406,0,0,1,1.023-2.478,3.366,3.366,0,0,1,2.479-1.022,3.341,3.341,0,0,1,2.557,1.1,6.981,6.981,0,0,0,2.235-.856A3.423,3.423,0,0,1,16.52,5.267,7.461,7.461,0,0,0,18.543,4.7,6.762,6.762,0,0,1,16.8,6.511Z" transform="translate(5001 53)"/>
</svg>
